<svg xmlns="http://www.w3.org/2000/svg" viewBox="0 0 100 100">
  <!-- Hair Back -->
  <path d="M20,40 Q10,60 15,80 Q30,90 50,90 Q70,90 85,80 Q90,60 80,40" fill="#FFD700" />
  <!-- Face -->
  <circle cx="50" cy="50" r="35" fill="#FFE0BD" />
  <!-- Hair Front -->
  <path d="M20,40 Q30,20 50,20 Q70,20 80,40 Q70,30 50,35 Q30,30 20,40" fill="#FFD700" />
  <!-- Eyes -->
  <ellipse cx="35" cy="50" rx="5" ry="7" fill="#4A90E2" />
  <ellipse cx="65" cy="50" rx="5" ry="7" fill="#4A90E2" />
  <circle cx="37" cy="48" r="2" fill="white" />
  <circle cx="67" cy="48" r="2" fill="white" />
  <!-- Blush -->
  <ellipse cx="30" cy="60" rx="5" ry="3" fill="#FFB6C1" opacity="0.6" />
  <ellipse cx="70" cy="60" rx="5" ry="3" fill="#FFB6C1" opacity="0.6" />
  <!-- Mouth -->
  <path d="M45,65 Q50,70 55,65" stroke="#D08B5B" stroke-width="2" fill="none" />
  <!-- Bow -->
  <path d="M30,25 Q20,15 30,10 Q40,15 30,25 M70,25 Q80,15 70,10 Q60,15 70,25" fill="#FF69B4" />
</svg>